<?xml version="1.0" encoding="UTF-8" standalone="no"?>
<!DOCTYPE svg PUBLIC "-//W3C//DTD SVG 1.1//EN"
 "http://www.w3.org/Graphics/SVG/1.1/DTD/svg11.dtd">
<!-- Generated by graphviz version 2.28.0 (20110507.0327)
 -->
<!-- Title: G Pages: 1 -->
<svg width="392pt" height="274pt"
 viewBox="0.00 0.00 392.00 274.00" xmlns="http://www.w3.org/2000/svg" xmlns:xlink="http://www.w3.org/1999/xlink">
<g id="graph1" class="graph" transform="scale(1 1) rotate(0) translate(4 270)">
<title>G</title>
<polygon fill="white" stroke="white" points="-4,5 -4,-270 389,-270 389,5 -4,5"/>
<g id="graph2" class="cluster"><title>cluster_default</title>
<polyline fill="none" stroke="none" points="40,-44 364,-44 "/>
<path fill="none" stroke="none" d="M364,-44C370,-44 376,-50 376,-56"/>
<polyline fill="none" stroke="none" points="376,-56 376,-246 "/>
<path fill="none" stroke="none" d="M376,-246C376,-252 370,-258 364,-258"/>
<polyline fill="none" stroke="none" points="364,-258 40,-258 "/>
<path fill="none" stroke="none" d="M40,-258C34,-258 28,-252 28,-246"/>
<polyline fill="none" stroke="none" points="28,-246 28,-56 "/>
<path fill="none" stroke="none" d="M28,-56C28,-50 34,-44 40,-44"/>
</g>
<!-- \\Rbppavl -->
<g id="node2" class="node"><title>\\Rbppavl</title>
<a xlink:href="db_Rbppavl.html" xlink:title="«abstract»&lt;br/&gt;Rbppavl" target="_parent">
<polygon fill="none" stroke="black" points="121.5,-196 36.5,-196 36.5,-160 121.5,-160 121.5,-196"/>
<text text-anchor="start" x="45" y="-181.7" font-family="Courier New" font-size="11.00">«abstract»</text>
<text text-anchor="start" x="55" y="-170.7" font-family="Courier New" font-size="11.00">Rbppavl</text>
</a>
</g>
<!-- \\RbppavlCbInterface -->
<g id="node3" class="node"><title>\\RbppavlCbInterface</title>
<a xlink:href="db_RbppavlCbInterface.html" xlink:title="RbppavlCbInterface" target="_parent">
<polygon fill="none" stroke="black" points="368,-250 230,-250 230,-214 368,-214 368,-250"/>
<text text-anchor="middle" x="299" y="-229.2" font-family="Courier New" font-size="11.00">RbppavlCbInterface</text>
</a>
</g>
<!-- \\RbppavlNode -->
<g id="node4" class="node"><title>\\RbppavlNode</title>
<a xlink:href="db_RbppavlNode.html" xlink:title="RbppavlNode" target="_parent">
<polygon fill="none" stroke="black" points="344.5,-196 253.5,-196 253.5,-160 344.5,-160 344.5,-196"/>
<text text-anchor="middle" x="299" y="-175.2" font-family="Courier New" font-size="11.00">RbppavlNode</text>
</a>
</g>
<!-- \\RbppavlNode&#45;&gt;\\Rbppavl -->
<g id="edge3" class="edge"><title>\\RbppavlNode&#45;&gt;\\Rbppavl</title>
<path fill="none" stroke="black" d="M253.358,-178C218.061,-178 168.735,-178 131.72,-178"/>
<polygon fill="none" stroke="black" points="131.628,-174.5 121.628,-178 131.628,-181.5 131.628,-174.5"/>
</g>
<!-- \\RbppavlTraverser -->
<g id="node5" class="node"><title>\\RbppavlTraverser</title>
<a xlink:href="db_RbppavlTraverser.html" xlink:title="RbppavlTraverser" target="_parent">
<polygon fill="none" stroke="black" points="361.5,-142 236.5,-142 236.5,-106 361.5,-106 361.5,-142"/>
<text text-anchor="middle" x="299" y="-121.2" font-family="Courier New" font-size="11.00">RbppavlTraverser</text>
</a>
</g>
<!-- \\RbppavlCommon -->
<g id="node9" class="node"><title>\\RbppavlCommon</title>
<ellipse fill="none" stroke="black" cx="79" cy="-18" rx="78.7863" ry="18"/>
<text text-anchor="middle" x="79" y="-14.3" font-family="Times New Roman,serif" font-size="14.00" fill="gray">\RbppavlCommon</text>
</g>
<!-- \\RbppavlTraverser&#45;&gt;\\RbppavlCommon -->
<g id="edge5" class="edge"><title>\\RbppavlTraverser&#45;&gt;\\RbppavlCommon</title>
<path fill="none" stroke="black" d="M247.452,-105.858C241.445,-103.142 235.5,-100.177 230,-97 194.658,-76.5858 194.346,-58.5668 158,-40 153.759,-37.8338 149.277,-35.8558 144.69,-34.0542"/>
<polygon fill="none" stroke="black" points="145.768,-30.7221 135.174,-30.6 143.38,-37.3021 145.768,-30.7221"/>
</g>
<!-- \\RbppavlTree -->
<g id="node6" class="node"><title>\\RbppavlTree</title>
<a xlink:href="db_RbppavlTree.html" xlink:title="RbppavlTree" target="_parent">
<polygon fill="none" stroke="black" points="344.5,-88 253.5,-88 253.5,-52 344.5,-52 344.5,-88"/>
<text text-anchor="middle" x="299" y="-67.2" font-family="Courier New" font-size="11.00">RbppavlTree</text>
</a>
</g>
<!-- \\RbppavlTree&#45;&gt;\\RbppavlCommon -->
<g id="edge7" class="edge"><title>\\RbppavlTree&#45;&gt;\\RbppavlCommon</title>
<path fill="none" stroke="black" d="M253.358,-59.3515C221.953,-51.8604 179.443,-41.7203 144.378,-33.3563"/>
<polygon fill="none" stroke="black" points="144.769,-29.8514 134.23,-30.9356 143.145,-36.6604 144.769,-29.8514"/>
</g>
</g>
</svg>
